<svg width="11" height="13" viewBox="0 0 11 13" fill="none" xmlns="http://www.w3.org/2000/svg">
<path d="M8.00263 3.57836C8.00263 5.10359 6.92964 6.22605 5.73711 6.22605C4.54458 6.22605 3.4716 5.10359 3.4716 3.57836C3.4716 2.05312 4.54458 0.930664 5.73711 0.930664C6.92964 0.930664 8.00263 2.05312 8.00263 3.57836ZM5.73711 8.40643C6.34064 8.40643 6.91365 8.26345 7.43081 8.01297H7.67297C8.94112 8.01297 10.0768 9.20674 10.0768 10.818V11.841C10.0768 12.2793 9.77725 12.5214 9.53969 12.5214H1.93453C1.69697 12.5214 1.39746 12.2793 1.39746 11.841V10.818C1.39746 9.20674 2.5331 8.01297 3.80125 8.01297H4.0438C4.56181 8.26314 5.13291 8.40643 5.73711 8.40643Z" stroke="white"/>
</svg>
