<svg width="48" height="48" viewBox="0 0 48 48" fill="none" xmlns="http://www.w3.org/2000/svg">
<path d="M24 0.000244141C27.1517 0.000244141 30.2726 0.621023 33.1844 1.82714C36.0962 3.03325 38.742 4.80108 40.9706 7.02968C43.1992 9.25829 44.967 11.904 46.1731 14.8158C47.3792 17.7277 48 20.8485 48 24.0002C48 30.3654 45.4714 36.4699 40.9706 40.9708C36.4697 45.4717 30.3652 48.0002 24 48.0002C20.8483 48.0002 17.7274 47.3795 14.8156 46.1734C11.9038 44.9672 9.25804 43.1994 7.02944 40.9708C2.52856 36.4699 0 30.3654 0 24.0002C0 17.635 2.52856 11.5306 7.02944 7.02968C11.5303 2.52881 17.6348 0.000244141 24 0.000244141ZM14.4 13.7042V21.7202L31.536 24.0002L14.4 26.2802V34.2962L38.4 24.0002L14.4 13.7042Z" fill="#1271BB"/>
</svg>
