<svg width="50" height="50" viewBox="0 0 50 50" fill="none" xmlns="http://www.w3.org/2000/svg">
<g clip-path="url(#clip0_378:99)">
<path fill-rule="evenodd" clip-rule="evenodd" d="M41 25.3574L41 16.3574L42.5 16.3574L42.5 25.3574L41 25.3574Z" fill="black"/>
<path fill-rule="evenodd" clip-rule="evenodd" d="M5 16.6189L24.3507 27.3574L44 16.3574L24.3507 4.85736L5 16.6189ZM8.98003 16.5403L24.3465 25.0677L39.9746 16.3188L24.3701 7.18605L8.98003 16.5403Z" fill="black"/>
<path fill-rule="evenodd" clip-rule="evenodd" d="M42.5 34.8574H6.5V42.8574H42.5V34.8574ZM5 33.3574V44.3574H44V33.3574H5Z" fill="black"/>
<path fill-rule="evenodd" clip-rule="evenodd" d="M10 33.3574L10 18.3574L11.5 18.3574L11.5 33.3574L10 33.3574Z" fill="black"/>
<path fill-rule="evenodd" clip-rule="evenodd" d="M37 33.3574L37 18.3574L38.5 18.3574L38.5 33.3574L37 33.3574Z" fill="black"/>
<path fill-rule="evenodd" clip-rule="evenodd" d="M36 43.3574L36 34.3574L37.5 34.3574L37.5 43.3574L36 43.3574Z" fill="black"/>
<path fill-rule="evenodd" clip-rule="evenodd" d="M28 41.3574L28 36.3574L29.5 36.3574L29.5 41.3574L28 41.3574Z" fill="black"/>
<path fill-rule="evenodd" clip-rule="evenodd" d="M40 25.3574V31.3574V32.3574H41.5H43H44H44.5L44.5 24.3574H44H43H41.5H40V25.3574ZM43 31.3574L43 25.3574H41.5L41.5 31.3574H43Z" fill="black"/>
<path fill-rule="evenodd" clip-rule="evenodd" d="M33 43.3574L33 34.3574L34.5 34.3574L34.5 43.3574L33 43.3574Z" fill="black"/>
<path fill-rule="evenodd" clip-rule="evenodd" d="M26 36.3574H34V37.8574H26V36.3574Z" fill="black"/>
<path fill-rule="evenodd" clip-rule="evenodd" d="M26 40.3574H34V41.8574H26V40.3574Z" fill="black"/>
<path fill-rule="evenodd" clip-rule="evenodd" d="M16 32.3574L11 32.3574L11 30.8574L16 30.8574L16 32.3574Z" fill="black"/>
<path fill-rule="evenodd" clip-rule="evenodd" d="M18 32.3574L17 32.3574L17 30.8574L18 30.8574L18 32.3574Z" fill="black"/>
<path fill-rule="evenodd" clip-rule="evenodd" d="M21 32.3574L19 32.3574L19 30.8574L21 30.8574L21 32.3574Z" fill="black"/>
<path fill-rule="evenodd" clip-rule="evenodd" d="M24 32.3574L22 32.3574L22 30.8574L24 30.8574L24 32.3574Z" fill="black"/>
<path fill-rule="evenodd" clip-rule="evenodd" d="M20.7573 16.3574L25 19.6L29.2426 16.3574L25 13.1147L20.7573 16.3574ZM23.2275 16.3574L25 17.7121L26.7724 16.3574L25 15.0027L23.2275 16.3574Z" fill="black"/>
</g>
<defs>
<clipPath id="clip0_378:99">
<rect width="50" height="50" fill="white"/>
</clipPath>
</defs>
</svg>
