<svg width="23" height="23" viewBox="0 0 23 23" fill="none" xmlns="http://www.w3.org/2000/svg">
<path d="M23 4.44059L17.71 0L16.215 1.70792L21.505 6.14851L23 4.44059ZM6.785 1.82178L5.29 0.113861L0 4.44059L1.495 6.14851L6.785 1.82178ZM12.075 7.05941H10.35V13.8911L15.755 17.1931L16.675 15.8267L12.075 13.0941V7.05941ZM11.5 2.50495C5.75 2.50495 1.15 7.05941 1.15 12.7525C1.15 18.4455 5.75 23 11.5 23C17.25 23 21.85 18.4455 21.85 12.7525C21.85 7.05941 17.25 2.50495 11.5 2.50495ZM11.5 20.7228C7.015 20.7228 3.45 17.1931 3.45 12.7525C3.45 8.31188 7.015 4.78218 11.5 4.78218C15.985 4.78218 19.55 8.31188 19.55 12.7525C19.55 17.1931 15.985 20.7228 11.5 20.7228Z" fill="#323232"/>
</svg>
