<svg width="75" height="59" viewBox="0 0 75 59" fill="none" xmlns="http://www.w3.org/2000/svg">
<path d="M15.9722 59C11.034 59 7.09877 57.323 4.16667 53.969C1.38889 50.615 0 46.1176 0 40.4767C0 34.2261 1.85185 27.8992 5.55556 21.4961C9.25926 14.9406 14.1975 9.07106 20.3704 3.8876C23.4568 1.29587 25.8488 0 27.5463 0C28.9352 0 30.1698 0.686048 31.25 2.05814C32.1759 3.12533 32.6389 4.26874 32.6389 5.48837C32.6389 7.16538 31.5586 8.84238 29.3981 10.5194C25.8488 13.2636 22.7623 16.6176 20.1389 20.5814C17.5154 24.3928 16.0494 27.823 15.7407 30.8721C16.9753 30.5672 17.9784 30.4147 18.75 30.4147C22.1451 30.4147 25.1543 31.7868 27.7778 34.531C30.5556 37.2752 31.9444 40.553 31.9444 44.3643C31.9444 48.7855 30.4784 52.3682 27.5463 55.1124C24.7685 57.7041 20.9105 59 15.9722 59ZM58.3333 59C53.5494 59 49.6142 57.3992 46.5278 54.1977C43.5957 50.8437 42.1296 46.27 42.1296 40.4767C42.1296 34.2261 43.9815 27.823 47.6852 21.2674C51.5432 14.7119 56.4815 8.9186 62.5 3.8876C65.5864 1.29587 67.9784 0 69.6759 0C70.9105 0 72.2222 0.762273 73.6111 2.28682C74.537 3.35401 75 4.42119 75 5.48837C75 7.16538 73.9198 8.84238 71.7593 10.5194C68.2099 13.416 65.1235 16.77 62.5 20.5814C59.8765 24.3928 58.3333 27.823 57.8704 30.8721C59.1049 30.5672 60.108 30.4147 60.8796 30.4147C64.429 30.4147 67.5154 31.7868 70.1389 34.531C72.9167 37.2752 74.3056 40.553 74.3056 44.3643C74.3056 48.7855 72.8395 52.3682 69.9074 55.1124C66.9753 57.7041 63.1173 59 58.3333 59Z" fill="#F1F1F1"/>
</svg>
